<svg xmlns="http://www.w3.org/2000/svg" xmlns:xlink="http://www.w3.org/1999/xlink" xmlns:inkscape="http://www.inkscape.org/namespaces/inkscape" version="1.1" width="158" height="140" viewBox="0 0 158 140">
<defs>
<clipPath id="clip_1">
<path transform="matrix(1,0,0,-1,0,140)" d="M0 140H158V0H0Z"/>
</clipPath>
</defs>
<g inkscape:groupmode="layer" inkscape:label="Layer 1">
<g clip-path="url(#clip_1)">
<path transform="matrix(1,0,0,-1,70.2989,36.299798)" d="M0 0C-.152 0-.307-.019-.461-.058-2.591-.595-4.703-1.325-6.773-2.267-8.844-3.208-10.782-4.321-12.587-5.572-13.438-6.163-13.651-7.332-13.072-8.19L3.377-32.554C2.147-34.31 1.818-36.624 2.674-38.734L-18.833-58.776C-19.591-59.482-19.647-60.67-18.95-61.436-17.473-63.062-15.834-64.581-14.029-65.964-12.223-67.348-10.33-68.534-8.375-69.537-8.101-69.678-7.807-69.745-7.518-69.745-6.836-69.745-6.177-69.375-5.837-68.731L7.912-42.748C8.179-42.78 8.449-42.797 8.721-42.797 9.617-42.797 10.527-42.613 11.396-42.218 12.463-41.733 13.332-40.993 13.972-40.107L42.365-47.713C42.53-47.757 42.695-47.779 42.858-47.779 43.686-47.779 44.448-47.235 44.682-46.402 45.277-44.287 45.696-42.092 45.912-39.828 46.126-37.563 46.128-35.329 45.942-33.141 45.859-32.155 45.027-31.411 44.053-31.411 44.007-31.411 43.96-31.412 43.914-31.416L14.597-33.537C13.598-31.397 11.579-30.056 9.383-29.822L1.831-1.413C1.605-.565 .839 0 0 0M0-1C.404-1 .759-1.275 .864-1.67L8.417-30.08 8.594-30.744 9.277-30.817C11.219-31.023 12.869-32.199 13.691-33.96L13.983-34.584 14.669-34.535 43.986-32.413 44.053-32.411C44.515-32.411 44.907-32.769 44.946-33.225 45.13-35.395 45.12-37.585 44.916-39.733 44.712-41.882 44.309-44.035 43.719-46.131 43.612-46.512 43.258-46.779 42.858-46.779 42.78-46.779 42.701-46.768 42.624-46.748L14.231-39.141 13.565-38.962 13.161-39.521C12.602-40.296 11.848-40.914 10.982-41.308 10.268-41.633 9.507-41.797 8.721-41.797 8.493-41.797 8.262-41.783 8.034-41.755L7.35-41.671 7.027-42.28-6.721-68.264C-6.878-68.561-7.183-68.745-7.518-68.745-7.658-68.745-7.792-68.712-7.918-68.647-9.856-67.653-11.707-66.483-13.42-65.17-15.134-63.858-16.746-62.375-18.21-60.764-18.536-60.405-18.51-59.841-18.152-59.508L3.356-39.466 3.86-38.996 3.601-38.358C2.896-36.621 3.119-34.666 4.196-33.128L4.591-32.564 4.206-31.995-12.243-7.631C-12.517-7.225-12.416-6.67-12.018-6.394-10.228-5.153-8.324-4.071-6.359-3.177-4.395-2.284-2.328-1.56-.216-1.027-.145-1.009-.072-1 0-1"/>
<path transform="matrix(1,0,0,-1,79.0001,30.591301)" d="M0 0C-23.196 0-42-18.804-42-42-42-65.196-23.196-84 0-84 23.196-84 42-65.196 42-42 42-18.804 23.196 0 0 0M0-1C22.607-1 41-19.393 41-42 41-64.607 22.607-83 0-83-22.607-83-41-64.607-41-42-41-19.393-22.607-1 0-1"/>
<path transform="matrix(1,0,0,-1,111.7032,64.8525)" stroke-width="1" stroke-linecap="round" stroke-miterlimit="10" stroke-linejoin="miter" fill="none" stroke="#000000" d="M0 0C-1.388 5.886-4.323 11.174-8.352 15.412"/>
<path transform="matrix(1,0,0,-1,100.5255,56.499)" stroke-width="1" stroke-linecap="round" stroke-miterlimit="10" stroke-linejoin="miter" fill="none" stroke="#000000" d="M0 0C1.96-2.619 3.453-5.607 4.357-8.842"/>
<path transform="matrix(1,0,0,-1,96.69,62.322305)" stroke-width="1" stroke-linecap="round" stroke-miterlimit="10" stroke-linejoin="miter" fill="none" stroke="#000000" d="M0 0C.641-1.103 1.181-2.271 1.61-3.491"/>
<path transform="matrix(1,0,0,-1,55.5826,48.487298)" stroke-width="1" stroke-linecap="round" stroke-miterlimit="10" stroke-linejoin="miter" fill="none" stroke="#000000" d="M0 0C-4.341-4.21-7.375-9.442-8.946-15.075"/>
<path transform="matrix(1,0,0,-1,54.1451,62.3677)" stroke-width="1" stroke-linecap="round" stroke-miterlimit="10" stroke-linejoin="miter" fill="none" stroke="#000000" d="M0 0C1.243 3.026 3.042 5.841 5.355 8.276"/>
<path transform="matrix(1,0,0,-1,61.1109,62.672899)" stroke-width="1" stroke-linecap="round" stroke-miterlimit="10" stroke-linejoin="miter" fill="none" stroke="#000000" d="M0 0C.618 1.115 1.343 2.178 2.171 3.172"/>
<path transform="matrix(1,0,0,-1,68.522,104.5225)" stroke-width="1" stroke-linecap="round" stroke-miterlimit="10" stroke-linejoin="miter" fill="none" stroke="#000000" d="M0 0C5.744-1.89 11.787-2.148 17.505-.925"/>
<path transform="matrix(1,0,0,-1,81.4835,99.3521)" stroke-width="1" stroke-linecap="round" stroke-miterlimit="10" stroke-linejoin="miter" fill="none" stroke="#000000" d="M0 0C-3.257-.304-6.586-.017-9.816 .901"/>
<path transform="matrix(1,0,0,-1,78.5201,93.04)" stroke-width="1" stroke-linecap="round" stroke-miterlimit="10" stroke-linejoin="miter" fill="none" stroke="#000000" d="M0 0C-1.275 .029-2.553 .178-3.818 .45"/>
</g>
</g>
</svg>
