<?xml version="1.0" encoding="UTF-8" standalone="no"?>
<!DOCTYPE svg PUBLIC "-//W3C//DTD SVG 1.1//EN" "http://www.w3.org/Graphics/SVG/1.1/DTD/svg11.dtd">
<svg width="100%" height="100%" viewBox="0 0 659 584" version="1.1" xmlns="http://www.w3.org/2000/svg" xmlns:xlink="http://www.w3.org/1999/xlink" xml:space="preserve" xmlns:serif="http://www.serif.com/" style="fill-rule:evenodd;clip-rule:evenodd;stroke-linecap:round;stroke-linejoin:round;stroke-miterlimit:10;">
    <g transform="matrix(1,0,0,1,-2974.222066,-656.25)">
        <g id="intercom" transform="matrix(4.166667,0,0,4.166667,2974.222066,656.25)">
            <rect x="0" y="0" width="158" height="140" style="fill:none;"/>
            <g id="Layer-1" serif:id="Layer 1">
                <g transform="matrix(1,0,0,1,110.956,52.7347)">
                    <path d="M0,44.071C5.304,38.42 8.558,30.823 8.558,22.462C8.558,13.674 4.967,5.727 -0.824,0" style="fill:none;fill-rule:nonzero;stroke:black;stroke-width:1px;"/>
                </g>
                <g transform="matrix(1,0,0,1,103.8349,59.4397)">
                    <path d="M0,30.634C3.551,26.201 5.565,21.137 5.565,15.757C5.565,10.018 3.276,4.638 -0.725,0" style="fill:none;fill-rule:nonzero;stroke:black;stroke-width:1px;"/>
                </g>
                <g transform="matrix(1,0,0,1,96.6689,66.1407)">
                    <path d="M0,17.142C1.893,14.561 2.901,11.851 2.901,9.056C2.901,5.908 1.624,2.869 -0.753,0" style="fill:none;fill-rule:nonzero;stroke:black;stroke-width:1px;"/>
                </g>
                <g transform="matrix(1,0,0,1,90.5575,71.3792)">
                    <path d="M0,1.342L-7.117,-8.162C-8.597,-20.799 -19.856,-30.448 -33.134,-29.299C-44.582,-28.308 -53.874,-19.077 -54.938,-7.635C-55.604,-0.464 -53.111,6.125 -48.699,10.922C-47.287,12.459 -46.519,14.478 -46.519,16.565L-46.519,31.79L-18.976,31.79L-18.976,20.821C-18.976,19.658 -18.032,18.716 -16.869,18.716L-11.238,18.716C-8.873,18.716 -6.937,16.78 -6.937,14.414L-6.937,6.069L-3.629,6.069C-1.813,6.069 -0.26,4.94 0.31,3.377C0.559,2.693 0.437,1.925 0,1.342Z" style="fill:none;fill-rule:nonzero;stroke:black;stroke-width:1px;"/>
                </g>
            </g>
        </g>
    </g>
</svg>
