<svg xmlns="http://www.w3.org/2000/svg" xmlns:xlink="http://www.w3.org/1999/xlink" xmlns:inkscape="http://www.inkscape.org/namespaces/inkscape" version="1.1" width="158" height="140" viewBox="0 0 158 140">
<defs>
<clipPath id="clip_1">
<path transform="matrix(1,0,0,-1,0,140)" d="M0 140H158V0H0Z"/>
</clipPath>
</defs>
<g inkscape:groupmode="layer" inkscape:label="Layer 1">
<g clip-path="url(#clip_1)">
<path transform="matrix(1,0,0,-1,48.1255,70.0542)" stroke-width="1" stroke-linecap="butt" stroke-linejoin="round" fill="none" stroke="#000000" d="M0 0C0-17.144 13.897-31.041 31.041-31.041 48.185-31.041 62.083-17.144 62.083 0 62.083 17.144 48.185 31.042 31.041 31.042 13.897 31.042 0 17.144 0 0Z"/>
<path transform="matrix(1,0,0,-1,69.3413,66.9771)" stroke-width="1" stroke-linecap="butt" stroke-linejoin="round" fill="none" stroke="#000000" d="M0 0C-1.55 0-2.807-1.257-2.807-2.807-2.807-4.357-1.55-5.614 0-5.614 1.551-5.614 2.808-4.357 2.808-2.807 2.808-1.257 1.551 0 0 0Z"/>
<path transform="matrix(1,0,0,-1,88.9917,66.9771)" stroke-width="1" stroke-linecap="butt" stroke-linejoin="round" fill="none" stroke="#000000" d="M0 0C-1.55 0-2.807-1.257-2.807-2.807-2.807-4.357-1.55-5.614 0-5.614 1.551-5.614 2.808-4.357 2.808-2.807 2.808-1.257 1.551 0 0 0Z"/>
<path transform="matrix(1,0,0,-1,99.3618,72.5913)" stroke-width="1" stroke-linecap="butt" stroke-linejoin="round" fill="none" stroke="#000000" d="M0 0H-2.439C-2.615 0-2.758-.143-2.758-.318V-7.963C-6.144-13.573-12.16-17.414-19.098-17.783V-13.28H-21.293V-17.783C-28.015-17.426-33.871-13.809-37.308-8.482V-.327C-37.308-.146-37.455 0-37.635 0H-40.39C-40.494 .832-40.547 1.678-40.547 2.537-40.547 3.583-40.468 4.611-40.316 5.614H-37.66C-37.466 5.614-37.308 5.772-37.308 5.967V13.557C-33.871 18.883-28.015 22.5-21.293 22.858V18.463H-19.098V22.857C-12.16 22.489-6.144 18.647-2.758 13.038V5.939C-2.758 5.76-2.613 5.614-2.434 5.614H-.074C.078 4.611 .157 3.583 .157 2.537 .157 1.678 .103 .832 0 0ZM9.73 44.591H-50.12C-56.789 44.591-62.195 39.185-62.195 32.516V-27.333C-62.195-34.002-56.789-39.409-50.12-39.409H9.73C16.398-39.409 21.805-34.002 21.805-27.333V32.516C21.805 39.185 16.398 44.591 9.73 44.591Z"/>
</g>
</g>
</svg>
