<svg xmlns="http://www.w3.org/2000/svg" version="1.1" width="158" height="140" viewBox="0 0 158 140">
<defs>
<clipPath id="clip_1">
<path transform="matrix(1,0,0,-1,0,140)" d="M0 140H158V0H0Z"/>
</clipPath>
</defs>
<!-- Paths shifted left by 38px to centre the bulb (original x≈117 → x≈79) -->
<g clip-path="url(#clip_1)" transform="translate(-38,0)">
<path transform="matrix(1,0,0,-1,106.2536,97.405307)" stroke-width="1" stroke-linecap="round" stroke-linejoin="round" fill="none" stroke="#000000" d="M0 0H21.963"/>
<path transform="matrix(1,0,0,-1,106.2536,101.721698)" stroke-width="1" stroke-linecap="round" stroke-linejoin="round" fill="none" stroke="#000000" d="M0 0H21.963"/>
<path transform="matrix(1,0,0,-1,106.2536,106.0381)" stroke-width="1" stroke-linecap="round" stroke-linejoin="round" fill="none" stroke="#000000" d="M0 0H21.963"/>
<path transform="matrix(1,0,0,-1,126.8971,110.3545)" d="M0 0H-19.324C-19.324-4.456-14.998-8.068-9.662-8.068-4.326-8.068 0-4.456 0 0M0 0H.005ZM-1.086-1C-1.684-4.425-5.302-7.068-9.662-7.068-14.022-7.068-17.64-4.425-18.237-1H-1.086"/>
<path transform="matrix(1,0,0,-1,143.9669,41.8555)" stroke-width="1" stroke-linecap="round" stroke-linejoin="round" fill="none" stroke="#000000" d="M0 0V15.38C0 17.448-1.692 19.14-3.759 19.14H-49.704C-51.771 19.14-53.463 17.448-53.463 15.38V0H0Z"/>
<path transform="matrix(1,0,0,-1,143.9669,46.059099)" stroke-width="1" stroke-linecap="round" stroke-linejoin="round" fill="none" stroke="#000000" d="M0 0H-53.463V-2.996C-53.463-3.022-53.456-3.047-53.456-3.074-53.457-3.178-53.463-3.281-53.463-3.386-53.463-18.467-43.273-17.699-39.663-44.65-39.48-46.014-38.313-47.03-36.938-47.03H-16.526C-15.15-47.03-13.983-46.014-13.8-44.65-10.19-17.699 0-18.467 0-3.386 0-3.281-.007-3.178-.008-3.074-.008-3.047 0-3.022 0-2.996V0Z"/>
</g>
</svg>
