<?xml version="1.0" encoding="UTF-8" standalone="no"?>
<!DOCTYPE svg PUBLIC "-//W3C//DTD SVG 1.1//EN" "http://www.w3.org/Graphics/SVG/1.1/DTD/svg11.dtd">
<svg width="100%" height="100%" viewBox="0 0 659 584" version="1.1" xmlns="http://www.w3.org/2000/svg" xmlns:xlink="http://www.w3.org/1999/xlink" xml:space="preserve" xmlns:serif="http://www.serif.com/" style="fill-rule:evenodd;clip-rule:evenodd;stroke-linecap:round;stroke-linejoin:round;stroke-miterlimit:10;">
    <g transform="matrix(1,0,0,1,-2974.222066,0)">
        <g id="lighting" transform="matrix(4.166667,0,0,4.166667,2974.222066,0)">
            <rect x="0" y="0" width="158" height="140" style="fill:none;"/>
            <g id="Layer-1" serif:id="Layer 1">
                <g transform="matrix(1,0,0,1,68.0182,97.4053)">
                    <path d="M0,0L21.963,0" style="fill:none;fill-rule:nonzero;stroke:black;stroke-width:1px;"/>
                </g>
                <g transform="matrix(1,0,0,1,68.0182,101.7217)">
                    <path d="M0,0L21.963,0" style="fill:none;fill-rule:nonzero;stroke:black;stroke-width:1px;"/>
                </g>
                <g transform="matrix(1,0,0,1,68.0182,106.0381)">
                    <path d="M0,0L21.963,0" style="fill:none;fill-rule:nonzero;stroke:black;stroke-width:1px;"/>
                </g>
                <g transform="matrix(1,0,0,1,88.6617,118.4225)">
                    <path d="M0,-8.068L-19.324,-8.068C-19.324,-3.612 -14.998,0 -9.662,0C-4.326,0 0,-3.612 0,-8.068M0,-8.068L0.005,-8.068L0,-8.068ZM-1.086,-7.068C-1.684,-3.643 -5.302,-1 -9.662,-1C-14.022,-1 -17.64,-3.643 -18.237,-7.068L-1.086,-7.068" style="fill-rule:nonzero;"/>
                </g>
                <g transform="matrix(1,0,0,1,105.7315,22.7155)">
                    <path d="M0,19.14L0,3.76C0,1.692 -1.692,0 -3.759,0L-49.704,0C-51.771,0 -53.463,1.692 -53.463,3.76L-53.463,19.14L0,19.14Z" style="fill:none;fill-rule:nonzero;stroke:black;stroke-width:1px;"/>
                </g>
                <g transform="matrix(1,0,0,1,105.7315,93.0891)">
                    <path d="M0,-47.03L-53.463,-47.03L-53.463,-44.034C-53.463,-44.008 -53.456,-43.983 -53.456,-43.956C-53.457,-43.852 -53.463,-43.749 -53.463,-43.644C-53.463,-28.563 -43.273,-29.331 -39.663,-2.38C-39.48,-1.016 -38.313,0 -36.938,0L-16.526,0C-15.15,0 -13.983,-1.016 -13.8,-2.38C-10.19,-29.331 0,-28.563 0,-43.644C0,-43.749 -0.007,-43.852 -0.008,-43.956C-0.008,-43.983 0,-44.008 0,-44.034L0,-47.03Z" style="fill:none;fill-rule:nonzero;stroke:black;stroke-width:1px;"/>
                </g>
            </g>
        </g>
    </g>
</svg>
