<?xml version="1.0" encoding="UTF-8" standalone="no"?>
<!DOCTYPE svg PUBLIC "-//W3C//DTD SVG 1.1//EN" "http://www.w3.org/Graphics/SVG/1.1/DTD/svg11.dtd">
<svg width="100%" height="100%" viewBox="0 0 659 584" version="1.1" xmlns="http://www.w3.org/2000/svg" xmlns:xlink="http://www.w3.org/1999/xlink" xml:space="preserve" xmlns:serif="http://www.serif.com/" style="fill-rule:evenodd;clip-rule:evenodd;stroke-linejoin:round;stroke-miterlimit:10;">
    <g transform="matrix(1,0,0,1,-11.722066,0)">
        <g id="appliances" transform="matrix(4.166667,0,0,4.166667,11.722066,0)">
            <rect x="0" y="0" width="158" height="140" style="fill:none;"/>
            <g id="Layer-1" serif:id="Layer 1">
                <g transform="matrix(0,1,1,0,79.1665,39.0122)">
                    <circle cx="31.041" cy="0" r="31.041" style="fill:none;stroke:black;stroke-width:1px;"/>
                </g>
                <g transform="matrix(-1,0,0,1,69.3423,72.5911)">
                    <ellipse cx="0.001" cy="-2.807" rx="2.808" ry="2.807" style="fill:none;stroke:black;stroke-width:1px;"/>
                </g>
                <g transform="matrix(-1,0,0,1,88.9927,72.5911)">
                    <ellipse cx="0.001" cy="-2.807" rx="2.808" ry="2.807" style="fill:none;stroke:black;stroke-width:1px;"/>
                </g>
                <g transform="matrix(1,0,0,1,99.3618,67.4093)">
                    <path d="M0,5.182L-2.439,5.182C-2.615,5.182 -2.758,5.325 -2.758,5.5L-2.758,13.145C-6.144,18.755 -12.16,22.596 -19.098,22.965L-19.098,18.462L-21.293,18.462L-21.293,22.965C-28.015,22.608 -33.871,18.991 -37.308,13.664L-37.308,5.509C-37.308,5.328 -37.455,5.182 -37.635,5.182L-40.39,5.182C-40.494,4.35 -40.547,3.504 -40.547,2.645C-40.547,1.599 -40.468,0.571 -40.316,-0.432L-37.66,-0.432C-37.466,-0.432 -37.308,-0.59 -37.308,-0.785L-37.308,-8.375C-33.871,-13.701 -28.015,-17.318 -21.293,-17.676L-21.293,-13.281L-19.098,-13.281L-19.098,-17.675C-12.16,-17.307 -6.144,-13.465 -2.758,-7.856L-2.758,-0.757C-2.758,-0.578 -2.613,-0.432 -2.434,-0.432L-0.074,-0.432C0.078,0.571 0.157,1.599 0.157,2.645C0.157,3.504 0.103,4.35 0,5.182ZM9.73,-39.409L-50.12,-39.409C-56.789,-39.409 -62.195,-34.003 -62.195,-27.334L-62.195,32.515C-62.195,39.184 -56.789,44.591 -50.12,44.591L9.73,44.591C16.398,44.591 21.805,39.184 21.805,32.515L21.805,-27.334C21.805,-34.003 16.398,-39.409 9.73,-39.409Z" style="fill:none;fill-rule:nonzero;stroke:black;stroke-width:1px;"/>
                </g>
            </g>
        </g>
    </g>
</svg>
