<?xml version="1.0" encoding="UTF-8" standalone="no"?>
<!DOCTYPE svg PUBLIC "-//W3C//DTD SVG 1.1//EN" "http://www.w3.org/Graphics/SVG/1.1/DTD/svg11.dtd">
<svg width="100%" height="100%" viewBox="0 0 659 584" version="1.1" xmlns="http://www.w3.org/2000/svg" xmlns:xlink="http://www.w3.org/1999/xlink" xml:space="preserve" xmlns:serif="http://www.serif.com/" style="fill-rule:evenodd;clip-rule:evenodd;stroke-linecap:round;stroke-linejoin:round;stroke-miterlimit:10;">
    <g transform="matrix(1,0,0,1,-752.335235,-1312.5)">
        <g id="lock" transform="matrix(4.166667,0,0,4.166667,752.335235,1312.5)">
            <rect x="0" y="0" width="158" height="140" style="fill:none;"/>
            <g id="Layer-1" serif:id="Layer 1">
                <g transform="matrix(1,0,0,1,115.6887,61.428)">
                    <path d="M0,11.761L0.003,0.382L0.564,-0.179L6.089,-0.185L6.814,0.433L7.5,4.286L7.503,7.851L6.814,11.706L6.089,12.325L0.561,12.323L0,11.761ZM-73.957,12.899L-70.209,12.907L-27.757,13.033L-26.241,15.309C-26.158,15.435 -26.017,15.511 -25.866,15.51L-18.805,15.516L-16.668,27.471C-16.648,27.575 -16.595,27.67 -16.514,27.738L-14.569,29.365C-14.487,29.432 -14.385,29.469 -14.279,29.469L7.207,29.472C7.313,29.473 7.416,29.435 7.497,29.366L9.436,27.734C9.445,27.725 9.454,27.717 9.463,27.708C9.528,27.643 9.572,27.559 9.588,27.468L12.665,10.255C12.669,10.229 12.672,10.202 12.672,10.176L12.672,1.583C12.672,1.556 12.67,1.531 12.666,1.504L9.589,-15.708C9.57,-15.813 9.516,-15.906 9.435,-15.975L7.495,-17.603C7.414,-17.672 7.311,-17.71 7.204,-17.709L-14.283,-17.712C-14.39,-17.712 -14.493,-17.675 -14.574,-17.606L-16.512,-15.973C-16.522,-15.966 -16.531,-15.957 -16.54,-15.948C-16.605,-15.883 -16.649,-15.8 -16.665,-15.708L-18.806,-3.755L-25.86,-3.749C-25.981,-3.749 -26.095,-3.7 -26.179,-3.617C-26.199,-3.596 -26.218,-3.573 -26.234,-3.548L-27.755,-1.27C-27.755,-1.27 -69.788,-1.349 -69.785,-1.347L-78.055,-1.372C-78.662,-1.016 -79.238,-0.587 -79.76,-0.066C-82.921,3.095 -83.033,8.14 -80.114,11.446L-73.957,12.899Z" style="fill:none;fill-rule:nonzero;stroke:black;stroke-width:1px;"/>
                </g>
                <g transform="matrix(1,0,0,1,74.8185,97.345)">
                    <path d="M0,-17.406C-3.423,-7.133 -10.953,0 -19.692,0C-27.339,0 -34.06,-5.461 -37.914,-13.707" style="fill:none;fill-rule:nonzero;stroke:black;stroke-width:1px;"/>
                </g>
                <g transform="matrix(-1,0,0,1,110.0896,0)">
                    <g transform="matrix(1,0,0,1,40.0744,46.4745)">
                        <path d="M0,-0.432C3.899,-5.651 9.22,-8.864 15.086,-8.864C23.794,-8.864 31.302,-1.781 34.741,8.432" style="fill:none;fill-rule:nonzero;stroke:black;stroke-width:1px;"/>
                    </g>
                    <g transform="matrix(1,0,0,1,49.0842,40.4809)">
                        <path d="M0,2.732L-9.01,5.562L-8.103,-2.83" style="fill:none;fill-rule:nonzero;stroke:black;stroke-width:1px;"/>
                    </g>
                </g>
            </g>
        </g>
    </g>
</svg>
