<?xml version="1.0" encoding="UTF-8" standalone="no"?>
<!DOCTYPE svg PUBLIC "-//W3C//DTD SVG 1.1//EN" "http://www.w3.org/Graphics/SVG/1.1/DTD/svg11.dtd">
<svg width="100%" height="100%" viewBox="0 0 659 584" version="1.1" xmlns="http://www.w3.org/2000/svg" xmlns:xlink="http://www.w3.org/1999/xlink" xml:space="preserve" xmlns:serif="http://www.serif.com/" style="fill-rule:evenodd;clip-rule:evenodd;stroke-linecap:round;stroke-linejoin:round;stroke-miterlimit:10;">
    <g transform="matrix(1,0,0,1,-11.722066,-656.25)">
        <g id="music" transform="matrix(4.166667,0,0,4.166667,11.722066,656.25)">
            <rect x="0" y="0" width="158" height="140" style="fill:none;"/>
            <g id="Layer-1" serif:id="Layer 1">
                <g transform="matrix(0,-1,-1,0,49.5621,86.6831)">
                    <ellipse cx="-14.564" cy="0" rx="10.024" ry="14.564" style="fill:none;stroke:black;stroke-width:1px;"/>
                </g>
                <g transform="matrix(0,-1,-1,0,101.7228,71.2549)">
                    <ellipse cx="-14.564" cy="0" rx="10.024" ry="14.564" style="fill:none;stroke:black;stroke-width:1px;"/>
                </g>
                <g transform="matrix(1,0,0,1,64.1256,25.5036)">
                    <path d="M0,75.743L0,15.296L52.161,0L52.161,60.557" style="fill:none;fill-rule:nonzero;stroke:black;stroke-width:1px;"/>
                </g>
                <g transform="matrix(0.959592,-0.281396,-0.281396,-0.959592,67.331589,59.478614)">
                    <path d="M-1.098,7.648L53.259,7.648" style="fill:none;fill-rule:nonzero;stroke:black;stroke-width:1px;"/>
                </g>
            </g>
        </g>
    </g>
</svg>
