<svg xmlns="http://www.w3.org/2000/svg" xmlns:xlink="http://www.w3.org/1999/xlink" xmlns:inkscape="http://www.inkscape.org/namespaces/inkscape" version="1.1" width="158" height="140" viewBox="0 0 158 140">
<defs>
<clipPath id="clip_1">
<path transform="matrix(1,0,0,-1,0,140)" d="M0 140H158V0H0Z"/>
</clipPath>
</defs>
<g inkscape:groupmode="layer" inkscape:label="Layer 1">
<g clip-path="url(#clip_1)">
<path transform="matrix(1,0,0,-1,72.3658,31.058098)" stroke-width="1" stroke-linecap="round" stroke-linejoin="round" fill="none" stroke="#000000" d="M0 0C-1.364 .568-2.937 .254-3.979-.792L-24.824-21.636H-34.268C-36.283-21.636-37.919-23.272-37.919-25.288V-47.201C-37.919-49.217-36.283-50.853-34.268-50.853H-24.824L-3.979-71.696C-3.282-72.396-2.347-72.766-1.397-72.766-.928-72.766-.451-72.675 0-72.489 1.365-71.922 2.255-70.591 2.255-69.114V-3.375C2.255-1.897 1.365-.566 0 0Z"/>
<path transform="matrix(1,0,0,-1,90.2994,53.763704)" stroke-width="1" stroke-linecap="round" stroke-linejoin="round" fill="none" stroke="#000000" d="M0 0 27.077-27.078"/>
<path transform="matrix(1,0,0,-1,117.3766,53.763704)" stroke-width="1" stroke-linecap="round" stroke-linejoin="round" fill="none" stroke="#000000" d="M0 0-27.077-27.078"/>
</g>
</g>
</svg>
