<?xml version="1.0" encoding="UTF-8" standalone="no"?>
<!DOCTYPE svg PUBLIC "-//W3C//DTD SVG 1.1//EN" "http://www.w3.org/Graphics/SVG/1.1/DTD/svg11.dtd">
<svg width="100%" height="100%" viewBox="0 0 659 584" version="1.1" xmlns="http://www.w3.org/2000/svg" xmlns:xlink="http://www.w3.org/1999/xlink" xml:space="preserve" xmlns:serif="http://www.serif.com/" style="fill-rule:evenodd;clip-rule:evenodd;stroke-linecap:round;stroke-linejoin:round;stroke-miterlimit:10;">
    <g transform="matrix(1,0,0,1,-1492.972066,0)">
        <g id="plants" transform="matrix(4.166667,0,0,4.166667,1492.972066,0)">
            <rect x="0" y="0" width="158" height="140" style="fill:none;"/>
            <g id="Layer-1" serif:id="Layer 1">
                <g transform="matrix(-1,0,0,1,60.530242,80.61)">
                    <path d="M-33.231,31.39L-0,31.39L1.498,0L-34.729,0L-33.231,31.39Z" style="fill:none;fill-rule:nonzero;stroke:black;stroke-width:1px;"/>
                </g>
                <g transform="matrix(1,0,0,1,94.258342,80.61)">
                    <path d="M0,-34.069C-11.368,-21.548 -18.113,-7.679 -17.325,0C-18.113,-7.916 -26.121,-27.644 -29.528,-32.209" style="fill:none;fill-rule:nonzero;stroke:black;stroke-width:1px;"/>
                </g>
                <g transform="matrix(1,0,0,1,65.107442,34.3655)">
                    <path d="M0,21.988L-0.063,21.988C-2.377,21.969 -4.536,20.993 -6.309,19.162C-7.81,17.613 -8.695,14.699 -9.725,11.324C-10.75,7.958 -11.911,4.142 -13.665,2.388C-14.064,1.988 -14.185,1.386 -13.968,0.863C-13.753,0.341 -13.242,0 -12.676,0C-4.946,0 2.118,3.022 5.102,6.006C8.468,9.375 9.815,15.862 6.5,19.176C4.713,20.965 2.347,21.988 0,21.988Z" style="fill:none;fill-rule:nonzero;stroke:black;stroke-width:1px;"/>
                </g>
                <g transform="matrix(1,0,0,1,92.358442,28.0003)">
                    <path d="M0,34.718C-3.314,34.718 -6.626,33.633 -9.468,31.062C-11.789,28.964 -13.062,25.964 -13.151,22.388C-13.273,17.449 -11.058,11.961 -7.506,8.408C-1.613,2.514 6.663,0 20.164,0C20.704,0 21.192,0.325 21.398,0.824C21.604,1.324 21.489,1.898 21.108,2.28C17.661,5.73 17.191,11.231 16.737,16.551C16.314,21.504 15.915,26.18 13.091,29.005C9.695,32.399 4.844,34.718 0,34.718Z" style="fill:none;fill-rule:nonzero;stroke:black;stroke-width:1px;"/>
                </g>
            </g>
        </g>
    </g>
</svg>
