<?xml version="1.0" encoding="UTF-8" standalone="no"?>
<!DOCTYPE svg PUBLIC "-//W3C//DTD SVG 1.1//EN" "http://www.w3.org/Graphics/SVG/1.1/DTD/svg11.dtd">
<svg width="100%" height="100%" viewBox="0 0 659 584" version="1.1" xmlns="http://www.w3.org/2000/svg" xmlns:xlink="http://www.w3.org/1999/xlink" xml:space="preserve" xmlns:serif="http://www.serif.com/" style="fill-rule:evenodd;clip-rule:evenodd;stroke-linejoin:round;stroke-miterlimit:10;">
    <g transform="matrix(1,0,0,1,-752.347066,0)">
        <g id="security" transform="matrix(4.166667,0,0,4.166667,752.347066,0)">
            <rect x="0" y="0" width="158" height="140" style="fill:none;"/>
            <g id="Layer-1" serif:id="Layer 1">
                <g transform="matrix(1,0,0,1,45.3574,99.0604)">
                    <path d="M0,-62.138L0,-27.594C0,-14.073 18.051,6.112 33.558,10.931C49.064,6.112 67.115,-14.073 67.115,-27.594L67.115,-62.138L33.558,-73.069L0,-62.138Z" style="fill:none;fill-rule:nonzero;stroke:black;stroke-width:1px;"/>
                </g>
                <g transform="matrix(1,0,0,1,63.3267,77.8602)">
                    <path d="M0,-24.308L0,0L31.177,0L31.177,-24.308" style="fill:none;fill-rule:nonzero;stroke:black;stroke-width:1px;"/>
                </g>
                <g transform="matrix(1,0,0,1,99.3765,45.123)">
                    <path d="M0,11.126L-20.461,0L-40.943,11.126" style="fill:none;fill-rule:nonzero;stroke:black;stroke-width:1px;"/>
                </g>
            </g>
        </g>
    </g>
</svg>
