<svg xmlns="http://www.w3.org/2000/svg" xmlns:xlink="http://www.w3.org/1999/xlink" xmlns:inkscape="http://www.inkscape.org/namespaces/inkscape" version="1.1" width="158" height="140" viewBox="0 0 158 140">
<defs>
<clipPath id="clip_1">
<path transform="matrix(1,0,0,-1,0,140)" d="M0 140H158V0H0Z"/>
</clipPath>
</defs>
<g inkscape:groupmode="layer" inkscape:label="Layer 1">
<g clip-path="url(#clip_1)">
<path transform="matrix(1,0,0,-1,110.956,96.805698)" stroke-width="1" stroke-linecap="round" stroke-linejoin="round" fill="none" stroke="#000000" d="M0 0C5.304 5.651 8.558 13.248 8.558 21.609 8.558 30.397 4.967 38.344-.824 44.071"/>
<path transform="matrix(1,0,0,-1,103.8349,90.0737)" stroke-width="1" stroke-linecap="round" stroke-linejoin="round" fill="none" stroke="#000000" d="M0 0C3.551 4.433 5.565 9.497 5.565 14.877 5.565 20.616 3.276 25.996-.725 30.634"/>
<path transform="matrix(1,0,0,-1,96.6689,83.2827)" stroke-width="1" stroke-linecap="round" stroke-linejoin="round" fill="none" stroke="#000000" d="M0 0C1.893 2.581 2.901 5.291 2.901 8.086 2.901 11.234 1.624 14.273-.753 17.142"/>
<path transform="matrix(1,0,0,-1,90.5575,72.7212)" stroke-width="1" stroke-linecap="round" stroke-linejoin="round" fill="none" stroke="#000000" d="M0 0-7.117 9.504C-8.597 22.141-19.856 31.79-33.134 30.641-44.582 29.65-53.874 20.419-54.938 8.977-55.604 1.806-53.111-4.783-48.699-9.58-47.287-11.117-46.519-13.136-46.519-15.223V-30.448H-18.976V-19.479C-18.976-18.316-18.032-17.374-16.869-17.374H-11.238C-8.873-17.374-6.937-15.438-6.937-13.072V-4.727H-3.629C-1.813-4.727-.26-3.598 .31-2.035 .559-1.351 .437-.583 0 0Z"/>
</g>
</g>
</svg>
