<svg xmlns="http://www.w3.org/2000/svg" xmlns:xlink="http://www.w3.org/1999/xlink" xmlns:inkscape="http://www.inkscape.org/namespaces/inkscape" version="1.1" width="158" height="140" viewBox="0 0 158 140">
<defs>
<clipPath id="clip_1">
<path transform="matrix(1,0,0,-1,0,140)" d="M0 140H158V0H0Z"/>
</clipPath>
</defs>
<g inkscape:groupmode="layer" inkscape:label="Layer 1">
<g clip-path="url(#clip_1)">
<path transform="matrix(1,0,0,-1,88.8594,99.5004)" stroke-width="1" stroke-linecap="round" stroke-linejoin="round" fill="none" stroke="#000000" d="M0 0C0 4.086-1.969 7.702-5 9.983V64C-5 68.143-8.358 71.5-12.5 71.5-16.642 71.5-20 68.143-20 64V9.983C-23.031 7.702-25 4.086-25 0-25-6.645-19.812-12.063-13.267-12.461-13.015-12.486-12.759-12.5-12.5-12.5-12.241-12.5-11.985-12.486-11.733-12.461-5.188-12.063 0-6.645 0 0Z"/>
<path transform="matrix(1,0,0,-1,78.8594,93.7738)" stroke-width="1" stroke-linecap="round" stroke-linejoin="round" fill="none" stroke="#000000" d="M0 0V27.523C0 28.905-1.119 30.024-2.5 30.024-3.881 30.024-5 28.905-5 27.523V0C-7.207-.965-8.75-3.164-8.75-5.727-8.75-9.178-5.952-11.977-2.5-11.977 .952-11.977 3.75-9.178 3.75-5.727 3.75-3.164 2.207-.965 0 0Z"/>
</g>
</g>
</svg>
