<?xml version="1.0" encoding="UTF-8" standalone="no"?>
<!DOCTYPE svg PUBLIC "-//W3C//DTD SVG 1.1//EN" "http://www.w3.org/Graphics/SVG/1.1/DTD/svg11.dtd">
<svg width="100%" height="100%" viewBox="0 0 659 584" version="1.1" xmlns="http://www.w3.org/2000/svg" xmlns:xlink="http://www.w3.org/1999/xlink" xml:space="preserve" xmlns:serif="http://www.serif.com/" style="fill-rule:evenodd;clip-rule:evenodd;stroke-linecap:round;stroke-miterlimit:10;">
    <g transform="matrix(1,0,0,1,-2233.597066,0)">
        <g id="ventilation" transform="matrix(4.166667,0,0,4.166667,2233.597066,0)">
            <rect x="0" y="0" width="158" height="140" style="fill:none;"/>
            <g id="Layer-1" serif:id="Layer 1">
                <g transform="matrix(1,0,0,1,70.2989,106.0448)">
                    <path d="M0,-69.745C-0.152,-69.745 -0.307,-69.726 -0.461,-69.687C-2.591,-69.15 -4.703,-68.42 -6.773,-67.478C-8.844,-66.537 -10.782,-65.424 -12.587,-64.173C-13.438,-63.582 -13.651,-62.413 -13.072,-61.555L3.377,-37.191C2.147,-35.435 1.818,-33.121 2.674,-31.011L-18.833,-10.969C-19.591,-10.263 -19.647,-9.075 -18.95,-8.309C-17.473,-6.683 -15.834,-5.164 -14.029,-3.781C-12.223,-2.397 -10.33,-1.211 -8.375,-0.208C-8.101,-0.067 -7.807,0 -7.518,0C-6.836,0 -6.177,-0.37 -5.837,-1.014L7.912,-26.997C8.179,-26.965 8.449,-26.948 8.721,-26.948C9.617,-26.948 10.527,-27.132 11.396,-27.527C12.463,-28.012 13.332,-28.752 13.972,-29.638L42.365,-22.032C42.53,-21.988 42.695,-21.966 42.858,-21.966C43.686,-21.966 44.448,-22.51 44.682,-23.343C45.277,-25.458 45.696,-27.653 45.912,-29.917C46.126,-32.182 46.128,-34.416 45.942,-36.604C45.859,-37.59 45.027,-38.334 44.053,-38.334C44.007,-38.334 43.96,-38.333 43.914,-38.329L14.597,-36.208C13.598,-38.348 11.579,-39.689 9.383,-39.923L1.831,-68.332C1.605,-69.18 0.839,-69.745 0,-69.745M0,-68.745C0.404,-68.745 0.759,-68.47 0.864,-68.075L8.417,-39.665L8.594,-39.001L9.277,-38.928C11.219,-38.722 12.869,-37.546 13.691,-35.785L13.983,-35.161L14.669,-35.21L43.986,-37.332L44.053,-37.334C44.515,-37.334 44.907,-36.976 44.946,-36.52C45.13,-34.35 45.12,-32.16 44.916,-30.012C44.712,-27.863 44.309,-25.71 43.719,-23.614C43.612,-23.233 43.258,-22.966 42.858,-22.966C42.78,-22.966 42.701,-22.977 42.624,-22.997L14.231,-30.604L13.565,-30.783L13.161,-30.224C12.602,-29.449 11.848,-28.831 10.982,-28.437C10.268,-28.112 9.507,-27.948 8.721,-27.948C8.493,-27.948 8.262,-27.962 8.034,-27.99L7.35,-28.074L7.027,-27.465L-6.721,-1.481C-6.878,-1.184 -7.183,-1 -7.518,-1C-7.658,-1 -7.792,-1.033 -7.918,-1.098C-9.856,-2.092 -11.707,-3.262 -13.42,-4.575C-15.134,-5.887 -16.746,-7.37 -18.21,-8.981C-18.536,-9.34 -18.51,-9.904 -18.152,-10.237L3.356,-30.279L3.86,-30.749L3.601,-31.387C2.896,-33.124 3.119,-35.079 4.196,-36.617L4.591,-37.181L4.206,-37.75L-12.243,-62.114C-12.517,-62.52 -12.416,-63.075 -12.018,-63.351C-10.228,-64.592 -8.324,-65.674 -6.359,-66.568C-4.395,-67.461 -2.328,-68.185 -0.216,-68.718C-0.145,-68.736 -0.072,-68.745 0,-68.745" style="fill-rule:nonzero;"/>
                </g>
                <g transform="matrix(1,0,0,1,79.0001,114.5913)">
                    <path d="M0,-84C-23.196,-84 -42,-65.196 -42,-42C-42,-18.804 -23.196,0 0,0C23.196,0 42,-18.804 42,-42C42,-65.196 23.196,-84 0,-84M0,-83C22.607,-83 41,-64.607 41,-42C41,-19.393 22.607,-1 0,-1C-22.607,-1 -41,-19.393 -41,-42C-41,-64.607 -22.607,-83 0,-83" style="fill-rule:nonzero;"/>
                </g>
                <g transform="matrix(-0.476452,-0.8792,-0.8792,0.476452,112.312654,49.803419)">
                    <path d="M-12.941,7.706C-7.104,6.122 -1.057,6.183 4.589,7.706" style="fill:none;fill-rule:nonzero;stroke:black;stroke-width:1px;"/>
                </g>
                <g transform="matrix(0.442012,0.897009,0.897009,-0.442012,105.706755,57.011731)">
                    <path d="M-2.75,-4.421C0.466,-3.82 3.806,-3.802 7.107,-4.421" style="fill:none;fill-rule:nonzero;stroke:black;stroke-width:1px;"/>
                </g>
                <g transform="matrix(0.418794,0.908081,0.908081,-0.418794,98.742926,62.605789)">
                    <path d="M-1.117,-1.745C0.153,-1.625 1.44,-1.624 2.727,-1.745" style="fill:none;fill-rule:nonzero;stroke:black;stroke-width:1px;"/>
                </g>
                <g transform="matrix(-0.510337,0.859974,0.859974,0.510337,55.30892,63.718131)">
                    <path d="M-13.238,-7.538C-7.402,-9.122 -1.354,-9.061 4.292,-7.538" style="fill:none;fill-rule:nonzero;stroke:black;stroke-width:1px;"/>
                </g>
                <g transform="matrix(0.543247,-0.839573,-0.839573,-0.543247,58.842209,62.725613)">
                    <path d="M-2.251,4.138C0.965,4.738 4.305,4.757 7.606,4.138" style="fill:none;fill-rule:nonzero;stroke:black;stroke-width:1px;"/>
                </g>
                <g transform="matrix(0.564805,-0.825224,-0.825224,-0.564805,62.89211,62.878462)">
                    <path d="M-0.836,1.586C0.433,1.706 1.719,1.708 3.007,1.586" style="fill:none;fill-rule:nonzero;stroke:black;stroke-width:1px;"/>
                </g>
                <g transform="matrix(0.998607,0.052768,0.052768,-0.998607,68.590867,104.062141)">
                    <path d="M-0.044,-0.463C5.791,-2.048 11.839,-1.986 17.485,-0.463" style="fill:none;fill-rule:nonzero;stroke:black;stroke-width:1px;"/>
                </g>
                <g transform="matrix(-0.995814,-0.091405,-0.091405,0.995814,71.71533,98.307735)">
                    <path d="M-9.823,0.147C-6.607,0.748 -3.266,0.766 0.035,0.147" style="fill:none;fill-rule:nonzero;stroke:black;stroke-width:1px;"/>
                </g>
                <g transform="matrix(-0.993126,-0.117053,-0.117053,0.993126,74.74156,92.368093)">
                    <path d="M-3.831,0.225C-2.562,0.345 -1.275,0.347 0.013,0.225" style="fill:none;fill-rule:nonzero;stroke:black;stroke-width:1px;"/>
                </g>
            </g>
        </g>
    </g>
</svg>
