<?xml version="1.0" encoding="UTF-8" standalone="no"?>
<!DOCTYPE svg PUBLIC "-//W3C//DTD SVG 1.1//EN" "http://www.w3.org/Graphics/SVG/1.1/DTD/svg11.dtd">
<svg width="100%" height="100%" viewBox="0 0 659 584" version="1.1" xmlns="http://www.w3.org/2000/svg" xmlns:xlink="http://www.w3.org/1999/xlink" xml:space="preserve" xmlns:serif="http://www.serif.com/" style="fill-rule:evenodd;clip-rule:evenodd;stroke-linecap:round;stroke-linejoin:round;stroke-miterlimit:10;">
    <g transform="matrix(1,0,0,1,-2233.597066,-1312.5)">
        <g id="thunderstorm" transform="matrix(4.166667,0,0,4.166667,2233.597066,1312.5)">
            <rect x="0" y="0" width="158" height="140" style="fill:none;"/>
            <g id="Layer-1" serif:id="Layer 1">
                <g transform="matrix(0.6084,0.79363,0.79363,-0.6084,70.403702,26.660187)">
                    <path d="M-1.98,-4.013L8.132,-4.013" style="fill:none;fill-rule:nonzero;stroke:black;stroke-width:1px;"/>
                </g>
                <g transform="matrix(-0.13005,-0.991507,-0.991507,0.13005,91.415518,22.685959)">
                    <path d="M-5.709,5.009L4.395,5.009" style="fill:none;fill-rule:nonzero;stroke:black;stroke-width:1px;"/>
                </g>
                <g transform="matrix(0.991498,-0.13012,-0.13012,-0.991498,120.691041,57.366295)">
                    <path d="M-0.043,0.659L10.086,0.659" style="fill:none;fill-rule:nonzero;stroke:black;stroke-width:1px;"/>
                </g>
                <g transform="matrix(0.793608,-0.608429,-0.608429,-0.793608,118.347092,43.719763)">
                    <path d="M-1.044,3.077L9.071,3.077" style="fill:none;fill-rule:nonzero;stroke:black;stroke-width:1px;"/>
                </g>
                <g transform="matrix(-0.383091,0.923711,0.923711,0.383091,108.908142,30.364955)">
                    <path d="M-6.993,-4.67L3.119,-4.67" style="fill:none;fill-rule:nonzero;stroke:black;stroke-width:1px;"/>
                </g>
                <g transform="matrix(1,0,0,1,91.0391,60.0761)">
                    <path d="M0,-27.129C-7.032,-27.129 -13.394,-24.268 -17.99,-19.648C-5.873,-18.873 4.37,-11.21 8.847,-0.523C11.211,-1.317 13.74,-1.755 16.372,-1.755C19.535,-1.755 22.55,-1.128 25.307,0C25.347,-0.58 25.375,-1.164 25.375,-1.755C25.375,-15.769 14.014,-27.129 0,-27.129Z" style="fill:none;fill-rule:nonzero;stroke:black;stroke-width:1px;"/>
                </g>
                <g transform="matrix(1,0,0,1,100.0958,40.3527)">
                    <path d="M0,65.195L7.315,65.195C20.356,65.195 30.928,54.623 30.928,41.582C30.928,28.541 20.356,17.968 7.315,17.968C4.683,17.968 2.154,18.406 -0.21,19.201C-4.935,7.923 -16.075,0 -29.067,0C-45.252,0 -58.565,12.294 -60.179,28.053C-67.935,30.442 -73.573,37.664 -73.573,46.204C-73.573,56.692 -65.07,65.195 -54.581,65.195L-49.397,65.195" style="fill:none;fill-rule:nonzero;stroke:black;stroke-width:1px;"/>
                </g>
                <g transform="matrix(1,0,0,1,80.4263,123.714)">
                    <path d="M0,-50.764L14.305,-47.61L7.152,-16.859L-2.871,-22.128L-18.868,0L-10.583,-35.317L-2.047,-29.153L0,-50.764Z" style="fill:none;fill-rule:nonzero;stroke:black;stroke-width:1px;"/>
                </g>
            </g>
        </g>
    </g>
</svg>
