<svg xmlns="http://www.w3.org/2000/svg" xmlns:xlink="http://www.w3.org/1999/xlink" xmlns:inkscape="http://www.inkscape.org/namespaces/inkscape" version="1.1" width="158" height="140" viewBox="0 0 158 140">
<defs>
<clipPath id="clip_1">
<path transform="matrix(1,0,0,-1,0,140)" d="M0 140H158V0H0Z"/>
</clipPath>
</defs>
<g inkscape:groupmode="layer" inkscape:label="Layer 1">
<g clip-path="url(#clip_1)">
<path transform="matrix(1,0,0,-1,115.6887,73.189)" stroke-width="1" stroke-linecap="round" stroke-linejoin="round" fill="none" stroke="#000000" d="M0 0V0L.003 11.379 .564 11.94 6.089 11.946 6.814 11.328 7.5 7.475 7.503 3.91 6.814 .055 6.089-.564 .561-.562 0 0ZM-73.957-1.138-70.209-1.146-27.757-1.272-26.241-3.548C-26.158-3.674-26.017-3.75-25.866-3.749L-18.805-3.755-16.668-15.71C-16.648-15.814-16.595-15.909-16.514-15.977L-14.569-17.604C-14.487-17.671-14.385-17.708-14.279-17.708L7.207-17.711C7.313-17.712 7.416-17.674 7.497-17.605L9.436-15.973C9.445-15.964 9.454-15.956 9.463-15.947 9.528-15.882 9.572-15.798 9.588-15.707L12.665 1.506C12.669 1.532 12.672 1.559 12.672 1.585V10.178C12.672 10.205 12.67 10.23 12.666 10.257L9.589 27.469C9.57 27.574 9.516 27.667 9.435 27.736L7.495 29.364C7.414 29.433 7.311 29.471 7.204 29.47L-14.283 29.473C-14.39 29.473-14.493 29.436-14.574 29.367L-16.512 27.734C-16.522 27.727-16.531 27.718-16.54 27.709-16.605 27.644-16.649 27.561-16.665 27.469L-18.806 15.516-25.86 15.51C-25.981 15.51-26.095 15.461-26.179 15.378-26.199 15.357-26.218 15.334-26.234 15.309L-27.755 13.031C-27.755 13.031-69.788 13.11-69.785 13.108L-78.055 13.133C-78.662 12.777-79.238 12.348-79.76 11.827-82.921 8.666-83.033 3.621-80.114 .315L-73.957-1.138Z"/>
<path transform="matrix(1,0,0,-1,74.8185,79.938999)" stroke-width="1" stroke-linecap="round" stroke-linejoin="round" fill="none" stroke="#000000" d="M0 0C-3.423-10.273-10.953-17.406-19.692-17.406-27.339-17.406-34.06-11.945-37.914-3.699"/>
<path transform="matrix(1,0,0,-1,40.0744,46.042505)" stroke-width="1" stroke-linecap="round" stroke-linejoin="round" fill="none" stroke="#000000" d="M0 0C3.899 5.219 9.22 8.432 15.086 8.432 23.794 8.432 31.302 1.349 34.741-8.864"/>
<path transform="matrix(1,0,0,-1,49.0842,43.2129)" stroke-width="1" stroke-linecap="round" stroke-linejoin="round" fill="none" stroke="#000000" d="M0 0-9.01-2.83-8.103 5.562"/>
</g>
</g>
</svg>
